<svg width="300" height="49" viewBox="0 0 847 138" fill="none" xmlns="http://www.w3.org/2000/svg">
<path d="M0 7.62939e-06H46V46H0V7.62939e-06Z" fill="#6A017A"/>
<path d="M46 7.62939e-06H92V46H46V7.62939e-06Z" fill="#E66C37"/>
<path d="M92 7.62939e-06H138V46H92V7.62939e-06Z" fill="#D64550"/>
<path d="M138 7.62939e-06H184V46H138V7.62939e-06Z" fill="#E044A6"/>
<path d="M184 7.62939e-06H230V46H184V7.62939e-06Z" fill="#4092FF"/>
<path d="M0 46H46V92H0V46Z" fill="#D9B400"/>
<path d="M46 46H92V92H46V46Z" fill="#12229E"/>
<path d="M92 46H138V92H92V46Z" fill="#754EC3"/>
<path d="M138 46H184V92H138V46Z" fill="#F373D0"/>
<path d="M184 46H230V92H184V46Z" fill="#1AAB40"/>
<path d="M0 92H46V138H0V92Z" fill="#2D8B57"/>
<path d="M46 92H92V138H46V92Z" fill="#17C6F4"/>
<path d="M92 92H138V138H92V92Z" fill="#1A7277"/>
<path d="M138 92H184V138H138V92Z" fill="#BE5DC9"/>
<path d="M184 92H230V138H184V92Z" fill="#FFA057"/>
<path d="M464.22 137.265H453.862V111.469C453.862 106.992 451.59 105.187 447.313 105.187C444.706 105.187 441.899 106.323 440.496 108.261V137.265H430.071V96.9675L437.556 96.4997L439.093 99.9748C442.1 97.3685 446.043 95.9651 450.253 95.9651C458.807 95.9651 464.22 101.378 464.22 111.469V137.265Z" fill="#1E3791"/>
<path d="M420.559 137.265H409.933V97.0343L420.559 96.5666V137.265ZM421.16 88.0126C421.16 90.953 419.356 92.4232 415.28 92.4232C411.27 92.4232 409.332 91.2871 409.332 88.0126C409.332 85.139 411.27 83.5351 415.28 83.5351C419.356 83.5351 421.16 85.0721 421.16 88.0126Z" fill="#1E3791"/>
<path d="M399.663 137.265H389.171V85.2057L399.663 84.7379V137.265Z" fill="#1E3791"/>
<path d="M368.186 137.265H357.761V97.0343L366.047 96.6333L366.983 103.383H367.184C369.723 98.5045 373.666 96.0987 378.277 96.0987C380.081 96.0987 381.618 96.366 382.688 96.7002L382.019 106.925C380.75 106.524 379.213 106.257 377.609 106.257C372.196 106.257 368.186 110.199 368.186 116.949V137.265Z" fill="#1E3791"/>
<path d="M336.982 138C323.015 138 316.8 130.649 316.8 116.481C316.8 103.584 322.48 96.032 334.643 96.032C345.001 96.032 351.35 102.047 351.35 114.878C351.35 116.415 351.283 118.353 351.083 119.756H327.492C328.027 126.506 331.302 129.045 338.252 129.045C342.061 129.045 345.603 128.377 349.078 127.04L350.214 135.394C346.806 136.931 342.128 138 336.982 138ZM327.292 112.873H341.86C341.727 106.925 339.054 104.653 334.71 104.653C329.698 104.653 327.76 106.992 327.292 112.873Z" fill="#1E3791"/>
<path d="M311.56 122.696C311.56 131.718 306.28 137.265 293.65 137.265H273V87.1438H293.383C304.276 87.1438 309.755 92.0222 309.755 99.9748C309.755 105.588 307.082 109.063 303.073 110.734V110.868C308.619 112.405 311.56 116.348 311.56 122.696ZM300.266 121.828C300.266 117.617 298.395 115.88 293.516 115.88H283.826V128.043H293.784C298.261 128.043 300.266 126.572 300.266 121.828ZM298.996 101.98C298.996 98.0367 297.192 96.6334 292.982 96.6334H283.893V107.526H293.249C297.259 107.526 298.996 105.922 298.996 101.98Z" fill="#1E3791"/>
<path d="M846.198 53.7298H835.839V27.9341C835.839 23.4567 833.567 21.6523 829.29 21.6523C826.684 21.6523 823.877 22.7884 822.474 24.7264V53.7298H812.048V13.4324L819.533 12.9646L821.07 16.4397C824.077 13.8334 828.02 12.43 832.23 12.43C840.784 12.43 846.198 17.8431 846.198 27.9341V53.7298Z" fill="#1E3791"/>
<path d="M791.269 54.465C777.302 54.465 771.087 47.1139 771.087 32.9463C771.087 20.0485 776.768 12.4969 788.93 12.4969C799.289 12.4969 805.638 18.5114 805.638 31.3424C805.638 32.8795 805.571 34.8175 805.37 36.2209H781.78C782.315 42.9705 785.589 45.51 792.539 45.51C796.348 45.51 799.89 44.8417 803.365 43.5051L804.501 51.8587C801.093 53.3957 796.415 54.465 791.269 54.465ZM781.579 29.3376H796.148C796.014 23.3899 793.341 21.1177 788.997 21.1177C783.985 21.1177 782.047 23.4567 781.579 29.3376Z" fill="#1E3791"/>
<path d="M767.908 20.9841H758.886V41.7008C758.886 44.8417 760.49 46.1782 763.698 46.1782C764.767 46.1782 766.17 45.9778 766.905 45.7104L767.507 53.262C766.103 53.8635 763.43 54.3981 760.557 54.3981C752.47 54.3981 748.528 49.7201 748.528 42.0349V20.9841H743.983V13.232H748.995L750.733 4.07655L758.886 3.34144V13.232H767.908V20.9841Z" fill="#1E3791"/>
<path d="M730.814 53.7298L730.012 49.8537L729.812 49.7869C727.339 52.7274 723.463 54.3981 718.852 54.3981C711.167 54.3981 706.288 50.0542 706.288 40.9656C706.288 33.4809 711.501 28.3351 720.723 28.3351C723.731 28.3351 726.337 28.8029 728.475 29.4712V27.1322C728.475 23.0557 726.337 21.1845 720.79 21.1845C716.313 21.1845 713.372 21.8528 709.63 23.3898L708.761 15.1031C712.838 13.3656 717.449 12.43 722.661 12.43C734.624 12.43 738.767 17.5758 738.767 28.6692V53.7298H730.814ZM728.475 41.4334V36.3545C727.473 35.9535 725.468 35.4857 722.728 35.4857C718.117 35.4857 715.979 37.2901 715.979 40.832C715.979 44.7748 718.318 46.1782 721.726 46.1782C725.268 46.1782 728.475 44.0397 728.475 41.4334Z" fill="#1E3791"/>
<path d="M699.351 53.7297H691.265L690.262 50.2547L690.062 50.1878C687.656 52.9946 684.114 54.5316 679.236 54.5316C668.811 54.5316 663.732 47.782 663.732 33.2803C663.732 19.9815 668.811 12.43 679.102 12.43C682.911 12.43 686.32 13.6997 688.993 16.1055L689.126 15.9719L688.993 10.6256V1.73747L699.351 1.20285V53.7297ZM688.993 42.7031V24.7932C687.723 22.9888 685.25 21.7191 682.176 21.7191C676.496 21.7191 674.424 24.6595 674.424 33.7481C674.424 43.2377 676.229 46.1113 682.109 46.1113C685.919 46.1113 688.057 44.3738 688.993 42.7031Z" fill="#1E3791"/>
<path d="M659.249 41.0324C659.249 49.1186 654.771 54.5317 643.812 54.5317C638.933 54.5317 634.522 53.5961 631.114 51.7249L632.183 43.1709C635.525 45.1089 640.27 46.0445 643.745 46.0445C647.888 46.0445 649.626 44.3738 649.626 41.968C649.626 35.4857 630.847 39.2281 630.847 25.0605C630.847 17.7762 635.792 12.5637 646.217 12.5637C650.294 12.5637 654.303 13.3656 657.712 14.769L656.843 23.2561C653.502 21.8528 649.024 21.1845 646.017 21.1845C642.609 21.1845 640.737 22.521 640.737 24.5927C640.737 30.7409 659.249 27.0653 659.249 41.0324Z" fill="#1E3791"/>
<path d="M624.438 53.7298H614.079V27.9341C614.079 23.4567 611.807 21.6523 607.53 21.6523C604.924 21.6523 602.117 22.7884 600.714 24.7264V53.7298H590.289V13.4324L597.773 12.9646L599.31 16.4397C602.318 13.8334 606.261 12.43 610.471 12.43C619.025 12.43 624.438 17.8431 624.438 27.9341V53.7298Z" fill="#1E3791"/>
<path d="M583.872 33.6146C583.872 48.5173 578.259 54.6654 565.361 54.6654C552.53 54.6654 546.782 48.5173 546.782 33.6146C546.782 18.7788 552.53 12.4969 565.361 12.4969C578.259 12.4969 583.872 18.7788 583.872 33.6146ZM557.542 33.6146C557.542 43.572 559.68 46.1783 565.361 46.1783C571.041 46.1783 573.113 43.5051 573.113 33.6146C573.113 23.724 571.041 21.0509 565.361 21.0509C559.614 21.0509 557.542 23.724 557.542 33.6146Z" fill="#1E3791"/>
<path d="M539.074 53.7298H528.449V13.4993L539.074 13.0315V53.7298ZM539.676 4.47748C539.676 7.41792 537.872 8.88813 533.795 8.88813C529.785 8.88813 527.847 7.75206 527.847 4.47748C527.847 1.60387 529.785 0 533.795 0C537.872 0 539.676 1.53705 539.676 4.47748Z" fill="#1E3791"/>
<path d="M521.544 20.9841H512.523V41.7008C512.523 44.8417 514.126 46.1782 517.334 46.1782C518.403 46.1782 519.807 45.9778 520.542 45.7104L521.143 53.262C519.74 53.8635 517.067 54.3981 514.193 54.3981C506.107 54.3981 502.164 49.7201 502.164 42.0349V20.9841H497.62V13.232H502.632L504.37 4.07655L512.523 3.34144V13.232H521.544V20.9841Z" fill="#1E3791"/>
<path d="M484.451 53.7298L483.649 49.8537L483.449 49.7869C480.976 52.7274 477.1 54.3981 472.489 54.3981C464.804 54.3981 459.925 50.0542 459.925 40.9656C459.925 33.4809 465.138 28.3351 474.36 28.3351C477.367 28.3351 479.974 28.8029 482.112 29.4712V27.1322C482.112 23.0557 479.974 21.1845 474.427 21.1845C469.949 21.1845 467.009 21.8528 463.267 23.3898L462.398 15.1031C466.474 13.3656 471.085 12.43 476.298 12.43C488.26 12.43 492.404 17.5758 492.404 28.6692V53.7298H484.451ZM482.112 41.4334V36.3545C481.11 35.9535 479.105 35.4857 476.365 35.4857C471.754 35.4857 469.615 37.2901 469.615 40.832C469.615 44.7748 471.954 46.1782 475.362 46.1782C478.904 46.1782 482.112 44.0397 482.112 41.4334Z" fill="#1E3791"/>
<path d="M446.367 13.232H457.728L443.026 53.7298H430.997L416.294 13.232H427.655L435.407 39.1613L436.878 44.3739H437.078L438.481 39.1613L446.367 13.232Z" fill="#1E3791"/>
<path d="M414.191 33.6146C414.191 48.5173 408.578 54.6654 395.68 54.6654C382.849 54.6654 377.102 48.5173 377.102 33.6146C377.102 18.7788 382.849 12.4969 395.68 12.4969C408.578 12.4969 414.191 18.7788 414.191 33.6146ZM387.861 33.6146C387.861 43.572 390 46.1783 395.68 46.1783C401.36 46.1783 403.432 43.5051 403.432 33.6146C403.432 23.724 401.36 21.0509 395.68 21.0509C389.933 21.0509 387.861 23.724 387.861 33.6146Z" fill="#1E3791"/>
<path d="M371.026 53.7298H360.668V27.9341C360.668 23.4567 358.396 21.6523 354.119 21.6523C351.512 21.6523 348.706 22.7884 347.302 24.7264V53.7298H336.877V13.4324L344.362 12.9646L345.899 16.4397C348.906 13.8334 352.849 12.43 357.059 12.43C365.613 12.43 371.026 17.8431 371.026 27.9341V53.7298Z" fill="#1E3791"/>
<path d="M328.998 53.7298H318.639V27.9341C318.639 23.4567 316.367 21.6523 312.09 21.6523C309.484 21.6523 306.677 22.7884 305.274 24.7264V53.7298H294.848V13.4324L302.333 12.9646L303.87 16.4397C306.877 13.8334 310.82 12.43 315.03 12.43C323.584 12.43 328.998 17.8431 328.998 27.9341V53.7298Z" fill="#1E3791"/>
<path d="M273.735 53.7298V3.60871H285.23V53.7298H273.735Z" fill="#1E3791"/>
</svg>
