<svg
    width="24"
	height="24"
	fill="white"
    xmlns="http://www.w3.org/2000/svg"
    viewBox="0 0 19.5 20.5"
>
    <path d="M19.24,7.59c-.17-.36-.41-.68-.72-.94h0S11.53.65,11.53.65h0c-.5-.42-1.13-.65-1.78-.65s-1.28.23-1.78.65L.97,6.65c-.3.26-.55.58-.72.94C.09,7.95,0,8.35,0,8.75v9C0,18.48.29,19.18.81,19.69c.52.52,1.22.81,1.94.81h14c.73,0,1.43-.29,1.94-.81.52-.52.81-1.22.81-1.94v-9c0-.4-.09-.8-.26-1.16ZM12,19h-4.5v-7.25c0-.07.03-.13.07-.18.05-.05.11-.07.18-.07h4c.07,0,.13.03.18.07.05.05.07.11.07.18v7.25ZM18,17.75c0,.33-.13.65-.37.88-.23.23-.55.37-.88.37h-3.25v-7.25c0-.46-.18-.91-.51-1.24-.33-.33-.77-.51-1.24-.51h-4c-.46,0-.91.18-1.24.51-.33.33-.51.77-.51,1.24v7.25h-3.25c-.33,0-.65-.13-.88-.37-.23-.23-.37-.55-.37-.88v-9c0-.18.04-.36.12-.53s.19-.31.33-.43L8.94,1.79c.23-.19.51-.29.81-.29s.58.1.81.29h0s7,6,7,6h0c.14.12.25.27.33.43s.12.34.12.53v9Z" />
</svg>