<svg
    width="24"
	height="24"
	fill="white"
    xmlns="http://www.w3.org/2000/svg"
    viewBox="0 0 21.5 21.5"
>
    <path d="M12.75,7h-4c-.97,0-1.75.78-1.75,1.75v4c0,.97.78,1.75,1.75,1.75h4c.97,0,1.75-.78,1.75-1.75v-4c0-.97-.78-1.75-1.75-1.75ZM13,12.75c0,.14-.11.25-.25.25h-4c-.14,0-.25-.11-.25-.25v-4c0-.14.11-.25.25-.25h4c.14,0,.25.11.25.25v4Z" />
    <path d="M20.75,13h-1.25v-4.5h1.25c.41,0,.75-.34.75-.75s-.34-.75-.75-.75h-1.25v-2.25c0-1.52-1.23-2.75-2.75-2.75h-2.25V.75c0-.41-.34-.75-.75-.75s-.75.34-.75.75v1.25h-4.5V.75c0-.41-.34-.75-.75-.75s-.75.34-.75.75v1.25h-2.25c-1.52,0-2.75,1.23-2.75,2.75v2.25H.75c-.41,0-.75.34-.75.75s.34.75.75.75h1.25v4.5H.75c-.41,0-.75.34-.75.75s.34.75.75.75h1.25v2.25c0,1.52,1.23,2.75,2.75,2.75h2.25v1.25c0,.41.34.75.75.75s.75-.34.75-.75v-1.25h4.5v1.25c0,.41.34.75.75.75s.75-.34.75-.75v-1.25h2.25c1.52,0,2.75-1.23,2.75-2.75v-2.25h1.25c.41,0,.75-.34.75-.75s-.34-.75-.75-.75ZM18,16.75c0,.69-.56,1.25-1.25,1.25H4.75c-.69,0-1.25-.56-1.25-1.25V4.75c0-.69.56-1.25,1.25-1.25h12c.69,0,1.25.56,1.25,1.25v12Z" />
</svg>