<svg xmlns="http://www.w3.org/2000/svg" viewBox="0 0 19.51 21.5">
	<path d="M8.26,21.5c-.2,0-.41-.05-.59-.15-.25-.13-.45-.35-.56-.61-.11-.26-.13-.56-.06-.83l1.93-6.05c.03-.07.03-.11.03-.15,0-.04-.02-.08-.04-.11-.02-.03-.05-.06-.09-.08-.04-.02-.08-.03-.12-.03H1.75c-.33,0-.65-.09-.93-.27-.28-.18-.51-.43-.65-.73-.14-.3-.2-.63-.16-.96.04-.33.17-.64.38-.9L10.34.4c.16-.18.41-.33.69-.38.28-.05.57,0,.82.13.25.13.45.35.56.61.11.26.13.55.06.83l-1.93,6.05c-.03.07-.03.11-.03.15,0,.04.02.08.04.11.02.04.06.06.09.08.04.02.08.03.12.03h7.01c.33,0,.65.09.93.27.28.18.5.43.65.73.14.3.2.63.16.96-.04.33-.17.64-.38.9l-9.94,10.25c-.16.18-.41.33-.69.38-.07.01-.15.02-.23.02ZM8.09,20.07s-.01.01-.02.02l.02-.02ZM8.76,12c.28,0,.56.07.81.2.25.13.47.32.63.55.16.23.26.5.3.78.04.28,0,.57-.1.83l-1.58,4.95,9.18-9.46s0-.03.01-.08c0-.05,0-.09-.02-.14-.02-.04-.05-.08-.09-.1-.04-.03-.09-.04-.13-.04h-7c-.27-.02-.56-.07-.81-.2-.25-.13-.47-.32-.63-.55-.16-.23-.26-.5-.3-.78-.03-.28,0-.57.1-.83l1.58-4.95L1.51,11.65s0,.03-.01.08c0,.05,0,.09.02.13.02.04.05.08.09.11.04.02.09.04.13.04h7.01ZM11.44,1.41l-.02.02s.01-.01.02-.02Z" />
</svg>
