<svg xmlns="http://www.w3.org/2000/svg" viewBox="0 0 19.54 21.5">
<path d="M9.99,21.5h-.44c-.73,0-1.43-.29-1.94-.81s-.81-1.21-.81-1.94v-.18c0-.22-.06-.43-.17-.62-.11-.19-.27-.35-.46-.46l-.43-.25c-.38-.22-.87-.22-1.25,0l-.17.09c-.61.35-1.36.45-2.06.26-.71-.19-1.3-.64-1.67-1.28l-.22-.38C0,15.3-.1,14.56.09,13.85c.19-.71.64-1.3,1.28-1.67l.14-.08c.2-.12.36-.28.47-.47.11-.19.17-.41.17-.63v-.51c0-.21-.06-.43-.17-.62s-.27-.35-.46-.45l-.19-.12c-.6-.34-1.05-.94-1.24-1.65-.19-.7-.09-1.46.27-2.08l.22-.38c.37-.64.96-1.09,1.67-1.28.71-.19,1.45-.09,2.08.27l.13.07c.42.24.89.23,1.27.01l.43-.25c.19-.11.35-.27.46-.46.11-.19.17-.41.17-.62v-.18c0-.73.29-1.42.81-1.94s1.21-.81,1.94-.81h.44c.73,0,1.42.29,1.94.81.52.52.81,1.21.81,1.94v.18c0,.22.06.43.17.62.11.19.27.35.46.46l.43.25c.38.22.87.22,1.25,0l.17-.09c.61-.36,1.35-.45,2.06-.26.71.19,1.3.64,1.67,1.28l.22.38c.37.64.46,1.38.28,2.08-.19.71-.64,1.3-1.28,1.67l-.14.08c-.2.12-.36.27-.47.47-.11.19-.17.41-.17.63v.5c0,.22.06.44.17.63.11.19.27.35.46.46l.13.07c.66.38,1.11.97,1.3,1.68.19.71.09,1.45-.27,2.08l-.22.38c-.37.64-.96,1.1-1.67,1.29-.71.19-1.45.09-2.08-.27l-.13-.07c-.42-.24-.89-.23-1.27-.01l-.43.25c-.19.11-.35.27-.46.46-.11.19-.17.41-.17.62v.18c0,.73-.29,1.43-.81,1.94-.52.52-1.21.81-1.94.81ZM5.12,15.57c.48,0,.96.13,1.38.37l.43.25c.42.24.76.59,1,1,.24.42.37.89.37,1.37v.18c0,.33.13.65.37.88s.55.37.88.37h.44c.33,0,.65-.13.88-.37.24-.24.37-.55.37-.88v-.18c0-.48.13-.96.37-1.37.24-.42.59-.76,1.01-1l.43-.25c.84-.48,1.92-.48,2.75,0l.13.07c.31.18.65.22.97.14s.59-.29.76-.58l.22-.38c.17-.29.21-.63.13-.95-.09-.32-.29-.59-.58-.76l-.13-.07c-.44-.25-.79-.6-1.03-1.02-.24-.42-.37-.9-.37-1.38v-.5c0-.48.12-.96.37-1.38.24-.42.59-.77,1.01-1.01l.14-.08c.3-.17.5-.44.59-.76.08-.32.04-.66-.12-.95l-.22-.38c-.17-.29-.44-.49-.76-.58-.32-.09-.66-.04-.95.12l-.17.09c-.79.46-1.9.47-2.73-.01l-.43-.25c-.41-.24-.76-.59-1-1-.24-.42-.37-.89-.37-1.37v-.18c0-.33-.13-.65-.37-.88-.24-.24-.55-.37-.88-.37h-.44c-.33,0-.65.13-.88.37s-.37.55-.37.88v.18c0,.48-.13.96-.37,1.37-.24.42-.59.76-1.01,1l-.43.25c-.84.48-1.92.48-2.75,0l-.13-.07c-.31-.18-.65-.22-.97-.14-.32.09-.59.29-.76.58l-.22.38c-.16.28-.21.63-.12.95.09.32.29.59.58.76l.19.12c.38.22.72.56.96.97.24.42.37.89.37,1.37v.51c0,.48-.12.96-.37,1.38-.24.42-.59.77-1.01,1.01l-.14.08c-.3.17-.5.44-.59.76-.09.32-.04.66.12.95l.22.38c.17.29.44.49.76.58.32.09.66.04.95-.12l.17-.09c.4-.23.87-.36,1.35-.36Z" />
<path d="M9.75,14.5c-2.07,0-3.75-1.68-3.75-3.75s1.68-3.75,3.75-3.75,3.75,1.68,3.75,3.75-1.68,3.75-3.75,3.75ZM9.75,8.5c-1.24,0-2.25,1.01-2.25,2.25s1.01,2.25,2.25,2.25,2.25-1.01,2.25-2.25-1.01-2.25-2.25-2.25Z" />
</svg>