<svg
    width="24"
	height="24"
	fill="white"
    xmlns="http://www.w3.org/2000/svg"
    viewBox="0 0 21.53 21.5"
>
    <path d="M20.78,8.8c-.5-.53-1.19-.84-1.92-.86-.16,0-.32.01-.48.03,0-.08.02-.15.02-.23,0-2.02-1.63-3.65-3.65-3.65s-3.65,1.63-3.65,3.65c0,.44.09.86.23,1.25h-2.58c-.74,0-1.48.24-1.96.85L1.76,14.7l-.48-.48c-.29-.29-.77-.29-1.06,0s-.29.77,0,1.06l6,6c.29.29.77.29,1.06,0s.29-.77,0-1.06l-.43-.43,1-.87s.07-.07.11-.11c.12-.16.36-.3.8-.3h4c1.27,0,2.48-.46,3.34-1.43l4.57-4.38h0c.53-.5.84-1.19.86-1.92.02-.73-.25-1.44-.75-1.97ZM14.75,5.6c1.19,0,2.15.96,2.15,2.15,0,.58-.23,1.11-.61,1.5l-.06.06c-.39.37-.9.59-1.48.59-1.19,0-2.15-.96-2.15-2.15s.96-2.15,2.15-2.15ZM19.63,11.6l-4.6,4.4s-.03.03-.05.05c-.54.62-1.32.94-2.24.94h-4c-.73,0-1.46.24-1.95.83l-1.02.89-2.96-2.96,5.05-4.87s.06-.06.08-.09c.12-.16.36-.3.8-.3h3c.33,0,.65.13.88.37s.37.55.37.88-.13.65-.37.88c-.23.23-.55.37-.88.37h-2c-.41,0-.75.34-.75.75s.34.75.75.75h2c.72,0,1.41-.28,1.92-.79.01,0,.03-.01.04-.02l3.59-3.33s.03-.03.04-.04l.57-.53h0c.24-.23.56-.36.9-.35.33,0,.65.15.87.39.23.24.35.56.34.9,0,.33-.15.65-.39.87Z" />
    <path d="M4.75,7.5c2.07,0,3.75-1.68,3.75-3.75S6.82,0,4.75,0,1,1.68,1,3.75s1.68,3.75,3.75,3.75ZM4.75,1.5c1.24,0,2.25,1.01,2.25,2.25s-1.01,2.25-2.25,2.25-2.25-1.01-2.25-2.25,1.01-2.25,2.25-2.25Z" />
</svg>