<svg
    width="24"
	height="24"
	fill="white"
    xmlns="http://www.w3.org/2000/svg"
    viewBox="0 0 19.5 21.5"
>
    <path d="M3.75,17.5h8c.41,0,.75-.34.75-.75s-.34-.75-.75-.75H3.75c-.41,0-.75.34-.75.75s.34.75.75.75Z" />
    <path d="M18.75,20h-2.43c.32-.23.63-.49.91-.77,1.45-1.45,2.27-3.42,2.27-5.48s-.82-4.03-2.27-5.48-3.42-2.27-5.48-2.27h-.25v-1.25c0-.41-.34-.75-.75-.75h-.25V1.75c0-.46-.18-.91-.51-1.24-.33-.33-.77-.51-1.24-.51h-2c-.46,0-.91.18-1.24.51s-.51.77-.51,1.24v2.25h-.25c-.41,0-.75.34-.75.75v4c0,.73.29,1.43.81,1.94.52.52,1.22.81,1.94.81h2c.73,0,1.43-.29,1.94-.81s.81-1.22.81-1.94v-1.25h.25c1.66,0,3.25.66,4.42,1.83s1.83,2.76,1.83,4.42-.66,3.25-1.83,4.42-2.76,1.83-4.42,1.83H.75c-.41,0-.75.34-.75.75s.34.75.75.75h18c.41,0,.75-.34.75-.75s-.34-.75-.75-.75ZM6.5,1.75c0-.07.03-.13.07-.18.05-.05.11-.07.18-.07h2c.07,0,.13.03.18.07.05.05.07.11.07.18v2.25h-2.5V1.75ZM10,8.75c0,.33-.13.65-.37.88s-.55.37-.88.37h-2c-.33,0-.65-.13-.88-.37s-.37-.55-.37-.88v-3.25h4.5v3.25Z" />
    <path d="M8.75,13.5c.41,0,.75-.34.75-.75s-.34-.75-.75-.75h-2c-.41,0-.75.34-.75.75s.34.75.75.75h2Z" />
</svg>