			<svg xmlns="http://www.w3.org/2000/svg" viewBox="0 0 24 24">
				<path d="M6.7,0l1.25.41c5.3,4.62,10.06,9.91,15.16,14.78,2.66,3.53-1.12,8.13-4.83,8.8-.34-.03-.75.05-1.07,0-.58-.08-1.43-.59-1.88-.96L1.01,8.8C-1.81,5.39,1.78.43,5.62,0h1.07ZM5.27.98C2.46,1.42-.71,5.9,1.77,8.25c1.63,1.55,4.47.38,5.79-1.05,2.36-2.57,1.95-6.87-2.28-6.21ZM22.78,19.4c.4-1.33.59-2.4-.32-3.57L9.97,3.41l-.15,1.48c2.32,1.14,2.98,3.88,4.88,5.55.29.25,1.07.59,1.1.93.02.2-.14.44-.35.47-.72.11-2.24-1.58-2.67-2.15-.72-.94-2.05-3.54-3.13-3.92-.2-.07-.13.05-.17.13-.39.67-.66,1.39-1.26,1.94.42.59,2.75,2.44,2.79,2.99.02.41-.4.59-.75.42l-2.74-2.82-1.55,1.11c3.24,3.17,7.19,5.53,11.34,7.33.16.23.21.53-.02.73-.3.24-1.04-.2-1.39-.34-3.01-1.29-6.4-3.44-8.92-5.53-.38-.31-1.78-1.76-1.99-1.86-.49-.23-1.02.24-1.5-.06-.05.18.07.21.16.32,1.57,1.98,4.13,3.78,5.79,5.76.82.23,1.61.2,2.44.45.43.13,2.9,1.13,1.91,1.73-.08.05-.17.06-.27.06-.17,0-1.45-.77-1.88-.91-.24-.08-.52-.15-.77-.19-.14-.03-.21-.2-.19.08l5.25,5.23c.62.49,1.33.88,2.15.64-.34-.45-.69-.97-1.07-1.39-.3-.32-1.72-1.44-1.77-1.54-.22-.47.22-.76.69-.58.42.16,1.54,1.27,1.88,1.65.23.26,1.18,1.66,1.39,1.68.37-.18.76-.34,1.1-.58.06-.04.2,0,.13-.18-.04-.1-1.03-1.26-1.17-1.4-.24-.22-1.28-.87-1.35-1.01-.19-.37.1-.69.51-.62.94.16,2.05,1.79,2.72,2.43.2.03,1.22-1.11,1.11-1.27-.56-.22-1.04-.76-1.37-1.25-.21-.31-.74-1.03-.46-1.38.52-.64,1.07.69,1.35,1.02.11.13.9.96,1.02.85h0Z" />
				<path d="M17.5,11.75c.14.15.13.64.23.89.51,1.25,1.77,2.13,2.23,3.39,0,.38-.61.52-.84.23-.43-.84-1.17-1.49-1.67-2.28-.29-.46-1.02-1.69-.69-2.18.15-.2.57-.21.73-.05h0Z" />
				<path d="M16.01,14.69c-.13.08-.46.01-.62-.04-.34-.12-2.78-1.74-3.11-2.03-.36-.32-.48-.84.07-.88.7-.05,2.63,1.84,3.46,2.07.33.09.43.74.21.88h0Z" />
				<path d="M4.85,2.16c3.86-.46,4.07,4.89.27,5.49-2.29.36-3.96-2.27-1.93-3.51,1.49-.91,3.2-.06,2.44,1.67-1.06.4-.56-.98-.93-1.11-.75-.25-1.9.56-1.33,1.43.7,1.06,1.88.7,2.73.05,1.77-1.36.76-3.43-1.37-3.06-.44.08-1.02.69-1.38.25-.53-.65,1.02-1.15,1.49-1.21h0Z" />
			</svg>