<svg xmlns="http://www.w3.org/2000/svg" fill="currentColor" viewBox="0 0 288 48">
				<path d="M0.5 0.639526H16.1016V16.2132H0.5V0.639526Z" fill="#6A017A" />
				<path
					d="M16.1016 0.639526H31.7031V16.2132H16.1016V0.639526Z"
					fill="#E66C37"
				/>
				<path
					d="M31.7031 0.639526H47.3047V16.2132H31.7031V0.639526Z"
					fill="#D64550"
				/>
				<path
					d="M47.3047 0.639526H62.9062V16.2132H47.3047V0.639526Z"
					fill="#E044A6"
				/>
				<path
					d="M62.9062 0.639526H78.5078V16.2132H62.9062V0.639526Z"
					fill="#4092FF"
				/>
				<path d="M0.5 16.2132H16.1016V31.7868H0.5V16.2132Z" fill="#D9B400" />
				<path
					d="M16.1016 16.2132H31.7031V31.7868H16.1016V16.2132Z"
					fill="#12229E"
				/>
				<path
					d="M31.7031 16.2132H47.3047V31.7868H31.7031V16.2132Z"
					fill="#754EC3"
				/>
				<path
					d="M47.3047 16.2132H62.9062V31.7868H47.3047V16.2132Z"
					fill="#F373D0"
				/>
				<path
					d="M62.9062 16.2132H78.5078V31.7868H62.9062V16.2132Z"
					fill="#1AAB40"
				/>
				<path d="M0.5 31.7868H16.1016V47.3605H0.5V31.7868Z" fill="#0F8DFF" />
				<path
					d="M16.1016 31.7868H31.7031V47.3605H16.1016V31.7868Z"
					fill="#17C6F4"
				/>
				<path
					d="M31.7031 31.7868H47.3047V47.3605H31.7031V31.7868Z"
					fill="#1A7277"
				/>
				<path
					d="M47.3047 31.7868H62.9062V47.3605H47.3047V31.7868Z"
					fill="#BE5DC9"
				/>
				<path
					d="M62.9062 31.7868H78.5078V47.3605H62.9062V31.7868Z"
					fill="#FFA057"
				/>
				<path d="M157.947 47.1116H154.434V38.3783C154.434 36.8624 153.663 36.2515 152.212 36.2515C151.328 36.2515 150.377 36.6361 149.901 37.2922V47.1116H146.365V33.4686L148.903 33.3102L149.425 34.4867C150.445 33.6043 151.782 33.1292 153.21 33.1292C156.111 33.1292 157.947 34.9619 157.947 38.3783V47.1116Z" />
				<path d="M143.139 47.1116H139.535V33.4912L143.139 33.3329V47.1116ZM143.343 30.4368C143.343 31.4323 142.731 31.9301 141.348 31.9301C139.988 31.9301 139.331 31.5455 139.331 30.4368C139.331 29.464 139.988 28.9209 141.348 28.9209C142.731 28.9209 143.343 29.4413 143.343 30.4368Z" />
				<path d="M136.051 47.1115H132.493V29.4866L136.051 29.3282V47.1115Z" />
				<path d="M125.376 47.1116H121.84V33.4912L124.65 33.3555L124.968 35.6406H125.036C125.897 33.989 127.234 33.1745 128.798 33.1745C129.41 33.1745 129.931 33.265 130.294 33.3781L130.067 36.8397C129.637 36.704 129.115 36.6135 128.571 36.6135C126.735 36.6135 125.376 37.9484 125.376 40.2335V47.1116Z" />
				<path d="M114.792 47.3605C110.055 47.3605 107.947 44.8717 107.947 40.0752C107.947 35.7085 109.874 33.1519 113.999 33.1519C117.512 33.1519 119.665 35.1881 119.665 39.5322C119.665 40.0525 119.643 40.7087 119.575 41.1838H111.574C111.755 43.4689 112.866 44.3287 115.223 44.3287C116.515 44.3287 117.716 44.1024 118.895 43.6499L119.28 46.4781C118.124 46.9985 116.538 47.3605 114.792 47.3605ZM111.506 38.8534H116.447C116.402 36.8398 115.495 36.0705 114.022 36.0705C112.322 36.0705 111.664 36.8624 111.506 38.8534Z" />
				<path d="M106.17 42.1793C106.17 45.2337 104.379 47.1116 100.096 47.1116H93.0919V30.1427H100.005C103.699 30.1427 105.558 31.7943 105.558 34.4867C105.558 36.3872 104.651 37.5637 103.291 38.1294V38.1746C105.173 38.695 106.17 40.0299 106.17 42.1793ZM102.339 41.8851C102.339 40.4598 101.705 39.8715 100.05 39.8715H96.7637V43.9893H100.141C101.659 43.9893 102.339 43.4915 102.339 41.8851ZM101.909 35.1655C101.909 33.8306 101.297 33.3555 99.8689 33.3555H96.7864V37.0434H99.9596C101.32 37.0434 101.909 36.5004 101.909 35.1655Z" />
				<path d="M287.5 18.8301H283.987V10.0968C283.987 8.58095 283.216 7.97007 281.766 7.97007C280.882 7.97007 279.93 8.3547 279.454 9.01083V18.8301H275.918V5.18718L278.456 5.0288L278.978 6.20531C279.998 5.32293 281.335 4.8478 282.763 4.8478C285.664 4.8478 287.5 6.68044 287.5 10.0968V18.8301Z" />
				<path d="M268.87 19.079C264.133 19.079 262.025 16.5903 262.025 11.7937C262.025 7.42709 263.952 4.87045 268.077 4.87045C271.59 4.87045 273.743 6.90671 273.743 11.2507C273.743 11.7711 273.721 12.4272 273.653 12.9024H265.652C265.833 15.1875 266.944 16.0473 269.301 16.0473C270.593 16.0473 271.794 15.821 272.973 15.3685L273.358 18.1967C272.202 18.717 270.616 19.079 268.87 19.079ZM265.584 10.572H270.525C270.48 8.55835 269.573 7.78909 268.1 7.78909C266.4 7.78909 265.742 8.58097 265.584 10.572Z" />
				<path d="M260.947 7.74383H257.887V14.7576C257.887 15.821 258.431 16.2735 259.519 16.2735C259.882 16.2735 260.358 16.2056 260.607 16.1151L260.811 18.6718C260.335 18.8754 259.428 19.0564 258.454 19.0564C255.711 19.0564 254.374 17.4726 254.374 14.8708V7.74383H252.833V5.11932H254.533L255.122 2.01967L257.887 1.7708V5.11932H260.947V7.74383Z" />
				<path d="M248.366 18.8301L248.094 17.5179L248.026 17.4953C247.188 18.4908 245.873 19.0564 244.309 19.0564C241.702 19.0564 240.048 17.5858 240.048 14.5087C240.048 11.9747 241.816 10.2326 244.944 10.2326C245.964 10.2326 246.848 10.391 247.573 10.6172V9.82533C247.573 8.4452 246.848 7.8117 244.966 7.8117C243.448 7.8117 242.45 8.03795 241.181 8.55833L240.886 5.75281C242.269 5.16455 243.833 4.8478 245.601 4.8478C249.658 4.8478 251.063 6.58994 251.063 10.3457V18.8301H248.366ZM247.573 14.6671V12.9476C247.233 12.8119 246.553 12.6535 245.624 12.6535C244.06 12.6535 243.334 13.2644 243.334 14.4635C243.334 15.7984 244.128 16.2735 245.284 16.2735C246.485 16.2735 247.573 15.5495 247.573 14.6671Z" />
				<path d="M237.695 18.8301H234.952L234.612 17.6536L234.544 17.631C233.728 18.5812 232.527 19.1016 230.873 19.1016C227.337 19.1016 225.614 16.8165 225.614 11.9068C225.614 7.40442 227.337 4.84778 230.827 4.84778C232.119 4.84778 233.275 5.27766 234.182 6.09217L234.227 6.04692L234.182 4.2369V1.22776L237.695 1.04676V18.8301ZM234.182 15.097V9.03343C233.751 8.42255 232.912 7.99268 231.87 7.99268C229.943 7.99268 229.241 8.98818 229.241 12.0652C229.241 15.278 229.853 16.2509 231.847 16.2509C233.139 16.2509 233.864 15.6626 234.182 15.097Z" />
				<path d="M224.094 14.5314C224.094 17.269 222.575 19.1016 218.858 19.1016C217.203 19.1016 215.707 18.7849 214.551 18.1514L214.914 15.2554C216.047 15.9115 217.657 16.2282 218.835 16.2282C220.24 16.2282 220.83 15.6626 220.83 14.8481C220.83 12.6535 214.461 13.9205 214.461 9.12395C214.461 6.65781 216.138 4.89304 219.674 4.89304C221.056 4.89304 222.416 5.16455 223.572 5.63968L223.278 8.51307C222.144 8.03794 220.626 7.81169 219.606 7.81169C218.45 7.81169 217.815 8.26419 217.815 8.96557C217.815 11.0471 224.094 9.8027 224.094 14.5314Z" />
				<path d="M212.287 18.8301H208.774V10.0968C208.774 8.58095 208.003 7.97007 206.553 7.97007C205.669 7.97007 204.717 8.3547 204.241 9.01083V18.8301H200.705V5.18718L203.243 5.0288L203.765 6.20531C204.785 5.32293 206.122 4.8478 207.55 4.8478C210.451 4.8478 212.287 6.68044 212.287 10.0968V18.8301Z" />
				<path d="M198.529 12.02C198.529 17.0654 196.625 19.1469 192.25 19.1469C187.898 19.1469 185.949 17.0654 185.949 12.02C185.949 6.99722 187.898 4.87045 192.25 4.87045C196.625 4.87045 198.529 6.99722 198.529 12.02ZM189.598 12.02C189.598 15.3911 190.324 16.2735 192.25 16.2735C194.177 16.2735 194.879 15.3685 194.879 12.02C194.879 8.67148 194.177 7.76647 192.25 7.76647C190.301 7.76647 189.598 8.67148 189.598 12.02Z" />
				<path d="M183.335 18.8301H179.731V5.2098L183.335 5.05143V18.8301ZM183.539 2.15541C183.539 3.15092 182.927 3.64867 181.544 3.64867C180.184 3.64867 179.527 3.26404 179.527 2.15541C179.527 1.18253 180.184 0.639526 181.544 0.639526C182.927 0.639526 183.539 1.1599 183.539 2.15541Z" />
				<path d="M177.389 7.74383H174.329V14.7576C174.329 15.821 174.873 16.2735 175.961 16.2735C176.324 16.2735 176.8 16.2056 177.049 16.1151L177.253 18.6718C176.777 18.8754 175.871 19.0564 174.896 19.0564C172.153 19.0564 170.816 17.4726 170.816 14.8708V7.74383H169.275V5.11932H170.975L171.564 2.01967L174.329 1.7708V5.11932H177.389V7.74383Z" />
				<path d="M164.809 18.8301L164.537 17.5179L164.469 17.4953C163.63 18.4908 162.315 19.0564 160.751 19.0564C158.145 19.0564 156.49 17.5858 156.49 14.5087C156.49 11.9747 158.258 10.2326 161.386 10.2326C162.406 10.2326 163.29 10.391 164.015 10.6172V9.82533C164.015 8.4452 163.29 7.8117 161.409 7.8117C159.89 7.8117 158.893 8.03795 157.623 8.55833L157.329 5.75281C158.711 5.16455 160.275 4.8478 162.043 4.8478C166.1 4.8478 167.506 6.58994 167.506 10.3457V18.8301H164.809ZM164.015 14.6671V12.9476C163.675 12.8119 162.995 12.6535 162.066 12.6535C160.502 12.6535 159.777 13.2644 159.777 14.4635C159.777 15.7984 160.57 16.2735 161.726 16.2735C162.927 16.2735 164.015 15.5495 164.015 14.6671Z" />
				<path d="M151.892 5.11931H155.745L150.759 18.8301H146.679L141.692 5.11931H145.545L148.175 13.8979L148.673 15.6626H148.741L149.217 13.8979L151.892 5.11931Z" />
				<path d="M140.979 12.02C140.979 17.0654 139.075 19.1469 134.701 19.1469C130.349 19.1469 128.399 17.0654 128.399 12.02C128.399 6.99722 130.349 4.87045 134.701 4.87045C139.075 4.87045 140.979 6.99722 140.979 12.02ZM132.049 12.02C132.049 15.3911 132.774 16.2735 134.701 16.2735C136.627 16.2735 137.33 15.3685 137.33 12.02C137.33 8.67148 136.627 7.76647 134.701 7.76647C132.751 7.76647 132.049 8.67148 132.049 12.02Z" />
				<path d="M126.339 18.8301H122.826V10.0968C122.826 8.58095 122.055 7.97007 120.604 7.97007C119.72 7.97007 118.769 8.3547 118.293 9.01083V18.8301H114.757V5.18718L117.295 5.0288L117.817 6.20531C118.837 5.32293 120.174 4.8478 121.602 4.8478C124.503 4.8478 126.339 6.68044 126.339 10.0968V18.8301Z" />
				<path d="M112.084 18.8301H108.571V10.0968C108.571 8.58095 107.8 7.97007 106.35 7.97007C105.466 7.97007 104.514 8.3547 104.038 9.01083V18.8301H100.502V5.18718L103.041 5.0288L103.562 6.20531C104.582 5.32293 105.919 4.8478 107.347 4.8478C110.248 4.8478 112.084 6.68044 112.084 10.0968V18.8301Z" />
				<path d="M93.3412 18.8301V1.86128H97.2397V18.8301H93.3412Z" />
			</svg>