<svg
    width="24"
	height="24"
	fill="white"
    xmlns="http://www.w3.org/2000/svg"
    viewBox="0 0 24 24"
>
    <path d="M11.95,0c.1,0,.29.1.35.17.1.14.11,1.36.06,1.55-.11.37-.7.36-.77-.14-.05-.37-.13-1.54.37-1.59Z" />
    <path d="M16.13,3.08c-.27-.27.33-1.43.57-1.62.32-.27.81-.03.73.41-.01.06-.56,1.02-.62,1.1-.16.2-.49.3-.67.11Z" />
    <path d="M21.48.78c.22-.03.31.09.43.24.25.31,2.04,3.36,2.08,3.61v18.01c.02.23-.08.53-.35.58-1.29-.12-2.89.17-4.14,0-.22-.03-.37-.14-.42-.36V4.55c.04-.2,1.86-3.3,2.07-3.55.08-.1.2-.2.33-.22ZM22.75,4.2c-.29-.75-.77-1.43-1.21-2.1l-1.29,2.1h2.5ZM21.11,5.05h-1.17v12.48h1.17V5.05ZM23.14,5.05h-1.17v12.48h1.17V5.05ZM19.94,18.31v1.01h3.2v-1.01h-3.2ZM19.94,20.18v2.18h3.2v-2.18h-3.2Z" />
    <path d="M7.83,3.08c-.16.16-.49.1-.64-.06-.06-.07-.64-1.08-.66-1.14-.08-.44.4-.68.73-.41.23.19.84,1.35.57,1.62Z" />
    <path d="M13.38,23.92h-2.81v.08h2.81v-.08Z" />
    <path d="M14.54,21.29c.18.18.1.65-.18.68h-4.76c-.33-.06-.46-.71.15-.78,1.05-.11,3.3-.09,4.37,0,.12.01.32.01.41.1Z" />
    <path d="M13.38,23.92h-2.81c-.32-.14-.36-.63,0-.74.29-.1,2.15-.07,2.54-.04.58.05.73.43.27.78Z" />
    <path d="M11.58,2.82c4.84-.29,8.18,4.5,6.68,9.02-.72,2.16-2.97,2.36-3.49,4.31-.13.48-.19,1.15-.22,1.66-.02.36.09,1.95-.07,2.11-.06.06-.19.1-.28.11-.78.12-3.54.1-4.37,0-.15-.02-.28-.04-.39-.16l-.12-3.08c-.36-2.73-2.9-2.56-3.67-5.07-1.29-4.17,1.49-8.64,5.92-8.91h0ZM13.78,17.3c0-1.15.37-2.31,1.21-3.12,1.52-1.49,2.57-1.41,2.77-4.01.65-8.59-12.2-8.6-11.54,0,.27,3.55,3.21,3.08,3.86,6.04.08.34.11.75.11,1.1h1.4v-5.5c0-.23-.93-.02-1.14-.19-.21-.17-.08-.71.09-.71h2.89c.17,0,.31.53.09.71-.22.18-1.14-.04-1.14.19v5.5h1.41ZM13.78,18.15h-3.59v1.01h3.59v-1.01Z" />
    <path d="M3.69.78c.93-.13.44,1.11.48,1.74.09,1.35,1.44,2.31.84,3.72-.13.3-.49.51-.56.68-.17.37.24,2.21.27,2.77.04.61-.02,1.24,0,1.86l-2.17,9.76c-.1.25-1.19,1.6-1.41,1.79-.35.28-.72.03-.7-.38.2-4.28-.25-8.77,0-13.03.03-.59.45-2.52.27-2.92-.05-.11-.29-.26-.38-.4C-.95,4.54,1.83,1.04,3.69.78ZM3.32,2.87c-.06.37-.26.69-.3,1.06-.05.43.29,1.73-.5,1.5-.79-.24-.05-2.73.22-3.26C1.74,2.83-.14,5.34,1.39,6.24c.63.37,1.88.45,2.5.05,1.02-.66.07-1.8-.3-2.56l-.27-.86ZM3.87,9.5l-.31-2.15c-.66.03-1.26.08-1.91-.12-.17.02-.27,1.98-.36,2.27h2.58ZM1.33,10.28c-.17,0-.17.78,0,.78h2.5c.17,0,.17-.78,0-.78H1.33ZM3.79,11.84H1.21v9.75c.24-.02.53-.47.6-.68l1.97-9.06Z" />
</svg>