<svg width="150" height="46" viewBox="0 0 150 46" fill="none" xmlns="http://www.w3.org/2000/svg">
<g clip-path="url(#clip0_117_871)">
<path d="M91.1942 31.1916V38.5201H94.6321L94.6019 39.5194H90.1387V31.1916H91.1942ZM74.0953 31.1916V39.5194H78.8299L78.8601 38.5201H75.1508V35.6432H78.1966V34.7347H75.1508V32.1909H78.7093L78.6791 31.1916H74.0953ZM85.766 33.5839C85.766 32.4937 85.3438 32.1303 84.4089 32.1303H82.9614V35.0678H84.3788C85.3136 35.0678 85.766 34.7044 85.766 33.5839ZM85.3438 35.734L87.3341 39.4891H86.0977L84.4089 35.9157H82.9614V39.4891H81.9059V31.1916H84.3788C86.0374 31.1916 86.8215 31.9184 86.8215 33.5537C86.8516 34.8558 86.3088 35.5523 85.3438 35.734ZM68.4258 38.5806C69.3305 38.5806 69.8432 38.2172 69.8432 37.0665C69.8432 36.0369 69.3908 35.6129 68.3957 35.6129H66.6466V38.5806H68.4258ZM66.6164 34.765H68.3052C69.1797 34.765 69.5416 34.341 69.5416 33.4325C69.5416 32.4635 69.1496 32.1303 68.2449 32.1303H66.5862L66.6164 34.765ZM69.5115 35.0981C70.386 35.3101 70.8987 35.946 70.8987 37.1271C70.8987 38.6412 70.2051 39.4891 68.4258 39.4891H65.6212V31.1916H68.3353C69.8432 31.1916 70.6273 31.8578 70.6273 33.2508C70.5971 34.2804 70.1448 34.8558 69.5115 35.0981ZM97.4367 39.4891H98.4922V31.1916H97.9493H97.4065L97.4367 39.4891ZM106.876 31.1916V36.6122L106.906 37.4905H106.876L106.423 36.7031L103.136 31.1916H102.171V39.5194H103.106V33.917V33.0086H103.136L103.589 33.7959L107.057 39.5194H107.811V31.1916H106.876ZM122.467 22.6517C122.226 22.7123 121.984 22.7426 121.683 22.7426C120.416 22.7426 119.964 22.1975 119.964 20.0474C119.964 17.9276 120.416 17.3522 121.894 17.3522C122.527 17.3522 123.191 17.4733 123.703 17.6853L123.884 16.1409C123.311 15.8986 122.527 15.7775 121.803 15.7775C119.24 15.7775 118.154 17.1099 118.154 20.108C118.154 23.0151 119.119 24.4082 121.743 24.4082C122.587 24.4082 123.462 24.2265 124.035 23.9539V19.7143H122.467V22.6517ZM82.2678 15.8986H81.3932H80.5187V24.2265H82.2979V15.8986H82.2678ZM74.3064 24.2265H76.0555V17.5339H78.076L78.0458 15.8986H72.3462L72.316 17.5339H74.3365L74.3064 24.2265ZM67.5513 22.8032C66.7973 22.8032 66.1339 22.5912 65.5006 22.2581L65.2593 23.8025C65.8926 24.1659 66.7069 24.3779 67.5814 24.3779C69.3607 24.3779 70.4162 23.4088 70.4162 21.7735C70.4162 19.0481 66.9783 19.5326 66.9783 18.2001C66.9783 17.7459 67.2497 17.3825 68.1846 17.3825C68.7575 17.3825 69.3305 17.5036 69.9638 17.7156L70.1749 16.2014C69.6019 15.9289 68.848 15.7775 68.0941 15.7775C66.1942 15.7775 65.3197 16.8677 65.3197 18.2607C65.3197 20.9862 68.7575 20.5016 68.7575 21.8644C68.7274 22.47 68.3655 22.8032 67.5513 22.8032ZM113.872 20.0474L113.902 20.9256H113.872L110.796 15.8683H109.318V24.2265H110.856V19.8354V18.9269H110.887L111.339 19.7143L114.174 24.2265H115.41V15.8986H113.872V20.0474ZM89.8673 19.3812H87.1532V17.5339H90.38L90.3498 15.8986H85.4041V24.2265H87.1532V20.9256H89.8372L89.8673 19.3812ZM106.333 21.3799V15.8986H104.614V21.3799C104.614 22.3489 104.252 22.7426 103.317 22.7426C102.382 22.7426 101.99 22.3186 101.99 21.3799V15.8986H100.241V21.3799C100.241 23.3785 101.297 24.3476 103.287 24.3476C105.277 24.3476 106.333 23.3785 106.333 21.3799ZM97.9795 15.8986H92.2799L92.2497 17.5339H94.2702V24.2265H96.0193V17.5339H98.0398L97.9795 15.8986ZM103.347 8.47926V0.151416H101.809V4.3002L101.84 5.17841H101.809L98.7636 0.151416H97.2859V8.47926H98.8239V4.08822V3.17972H98.854L99.3064 3.96708L102.141 8.47926C102.111 8.47926 103.347 8.47926 103.347 8.47926ZM66.5259 8.47926H68.275V1.7867H70.2955L70.2654 0.151416H64.5657L64.5356 1.7867H66.5561L66.5259 8.47926ZM146.592 6.90454V4.93614H149.337V3.48255H146.592V1.72614H149.849L149.819 0.121133H144.873V8.47926H149.97L150 6.90454H146.592ZM120.296 6.84398H117.25V0.151416H115.501V8.47926H120.265L120.296 6.84398ZM89.8673 5.02699H92.4306V8.47926H94.1797V0.151416H92.4306V3.39171H89.8673V0.151416H88.1182V8.47926H89.8673V5.02699ZM77.9252 6.90454H74.4873V4.93614H77.2316V3.48255H74.4873V1.72614H77.7443L77.7141 0.121133H72.7684V8.47926H77.8649L77.9252 6.90454ZM110.887 4.3002C110.887 2.08953 110.525 1.63529 109.379 1.63529C108.263 1.63529 107.871 2.11982 107.871 4.3002C107.871 6.51086 108.263 6.99539 109.379 6.99539C110.525 6.99539 110.887 6.51086 110.887 4.3002ZM109.409 8.6004C107.087 8.6004 106.092 7.35879 106.092 4.3002C106.092 1.21132 107.057 2.16067e-07 109.409 2.16067e-07C111.761 2.16067e-07 112.726 1.21132 112.726 4.3002C112.726 7.44964 111.761 8.6004 109.409 8.6004ZM139.958 8.47926H141.737V0.151416H140.832H139.958V8.47926ZM83.6852 8.6004C84.3486 8.6004 85.0422 8.44898 85.5549 8.17643L85.3739 6.69256C84.9518 6.87426 84.4994 6.99539 83.9566 6.99539C82.5995 6.99539 82.117 6.38973 82.117 4.20935C82.117 2.18038 82.5694 1.57472 83.9264 1.57472C84.4692 1.57472 84.9819 1.69585 85.3739 1.81699L85.5549 0.272548C85.1327 0.0908495 84.4089 -0.0605659 83.8058 -0.0605659C81.3932 -0.0605659 80.3076 1.33246 80.3076 4.17907C80.2774 7.26794 81.3631 8.6004 83.6852 8.6004ZM126.96 4.3002C126.96 2.08953 126.598 1.63529 125.452 1.63529C124.337 1.63529 123.945 2.11982 123.945 4.3002C123.945 6.51086 124.337 6.99539 125.452 6.99539C126.568 6.99539 126.96 6.51086 126.96 4.3002ZM128.77 4.3002C128.77 7.44964 127.805 8.6004 125.452 8.6004C123.13 8.6004 122.135 7.35879 122.135 4.3002C122.135 1.21132 123.1 2.16067e-07 125.452 2.16067e-07C127.805 2.16067e-07 128.77 1.24161 128.77 4.3002ZM135.464 6.90454C135.223 6.96511 134.952 6.99539 134.68 6.99539C133.414 6.99539 132.961 6.4503 132.961 4.3002C132.961 2.18038 133.414 1.605 134.891 1.605C135.525 1.605 136.188 1.72614 136.701 1.93812L136.882 0.39368C136.309 0.151416 135.495 2.16067e-07 134.801 2.16067e-07C132.238 2.16067e-07 131.152 1.33246 131.152 4.33048C131.152 7.23766 132.147 8.63068 134.741 8.63068C135.585 8.63068 136.49 8.44898 137.033 8.17643V3.96708H135.464V6.90454Z" fill="white"/>
<path d="M2.4427 31.6458L3.13631 31.2219L14.8975 33.0691L14.4451 33.5234L2.4427 31.6458ZM33.4439 17.8065L33.0519 18.2001L46.2907 24.0448L46.1701 23.4088L33.4439 17.8065ZM28.3776 15.5655L27.8347 15.8986L30.3679 17.0191L30.76 16.6254L28.3776 15.5655ZM56.3028 27.7393L50.8142 39.8828L17.5513 34.2199L18.4258 33.2811L49.7286 38.6412L43.848 5.84463L5.00603 46L0 30.9796L11.0676 7.75247L25.5127 14.1422L24.427 14.8084L11.5802 9.11521L1.68878 29.8894L44.4511 3.3917L50.6031 37.7024L54.8854 28.2844L49.3366 25.8315L49.1255 24.5596L56.3028 27.7393ZM5.45838 44.0013L42.1894 6.05662L1.26659 31.4036L5.45838 44.0013Z" fill="white"/>
</g>
<defs>
<clipPath id="clip0_117_871">
<rect width="150" height="46" fill="white"/>
</clipPath>
</defs>
</svg>
