<svg
    width="24"
	height="24"
	fill="white"
    xmlns="http://www.w3.org/2000/svg"
    viewBox="0 0 19.5 19.5"
>
    <path d="M16.75,0H2.75C1.23,0,0,1.23,0,2.75v14c0,1.52,1.23,2.75,2.75,2.75h14c1.52,0,2.75-1.23,2.75-2.75V2.75c0-1.52-1.23-2.75-2.75-2.75ZM1.5,7.5h7.5v4.5H1.5v-4.5ZM6.5,6V1.5h6.5v4.5h-6.5ZM13,13.5v4.5h-6.5v-4.5h6.5ZM10.5,12v-4.5h7.5v4.5h-7.5ZM18,2.75v3.25h-3.5V1.5h2.25c.69,0,1.25.56,1.25,1.25ZM2.75,1.5h2.25v4.5H1.5v-3.25c0-.69.56-1.25,1.25-1.25ZM1.5,16.75v-3.25h3.5v4.5h-2.25c-.69,0-1.25-.56-1.25-1.25ZM16.75,18h-2.25v-4.5h3.5v3.25c0,.69-.56,1.25-1.25,1.25Z" />
</svg>