<svg
    width="24"
	height="24"
	fill="white"
    viewBox="0 0 21 20"
    xmlns="http://www.w3.org/2000/svg"
>
    <path d="M19.38,9.08c-.37-.16-.8-.07-1.09.22-1.01,1.01-2.36,1.57-3.79,1.57s-2.78-.56-3.79-1.57c-2.09-2.09-2.09-5.49,0-7.59.29-.29.37-.72.22-1.09-.15-.37-.52-.62-.92-.62C4.49,0,0,4.49,0,10s4.49,10,10,10,10-4.49,10-10c0-.4-.24-.77-.62-.92ZM10,18c-4.41,0-8-3.59-8-8,0-3.67,2.49-6.78,5.87-7.71-.48.99-.73,2.08-.73,3.21,0,1.97.77,3.82,2.16,5.21,2.27,2.27,5.68,2.75,8.42,1.42-.93,3.38-4.04,5.87-7.71,5.87Z" />
    <path d="M20,2h-1v-1c0-.55-.45-1-1-1s-1,.45-1,1v1h-1c-.55,0-1,.45-1,1s.45,1,1,1h1v1c0,.55.45,1,1,1s1-.45,1-1v-1h1c.55,0,1-.45,1-1s-.45-1-1-1Z" />
</svg>