<svg
    width="24"
	height="24"
	fill="white"
    xmlns="http://www.w3.org/2000/svg"
    viewBox="0 0 21.47 21.47"
>
    <path d="M21.04,3.53c-.29-.7-.71-1.33-1.24-1.86-.53-.53-1.17-.95-1.86-1.24C17.24.14,16.5,0,15.74,0c-.75,0-1.5.16-2.19.45-.69.29-1.32.72-1.85,1.26l-5,5s0,0,0,0,0,0,0,0L1.71,11.7c-.54.53-.96,1.15-1.26,1.85C.16,14.24,0,14.99,0,15.74c0,.75.14,1.5.43,2.2.29.7.71,1.33,1.24,1.86.53.53,1.17.95,1.86,1.24.7.29,1.44.43,2.2.43.75,0,1.5-.16,2.19-.45.69-.29,1.32-.72,1.85-1.26l9.99-9.99c.54-.53.96-1.15,1.26-1.85.29-.69.45-1.44.45-2.19s-.14-1.5-.43-2.2ZM8.71,18.7h0c-.39.4-.85.72-1.36.93-.51.22-1.06.33-1.62.33s-1.11-.1-1.62-.32c-.51-.21-.98-.52-1.37-.91-.39-.39-.7-.86-.91-1.37s-.32-1.06-.32-1.62c0-.56.12-1.1.33-1.62.22-.51.53-.97.93-1.36l4.48-4.48,5.94,5.94-4.47,4.47ZM19.64,7.34c-.22.51-.53.97-.93,1.36l-4.48,4.47-5.94-5.94,4.47-4.47h0c.39-.4.85-.72,1.36-.93.51-.22,1.06-.33,1.62-.33.56,0,1.11.1,1.62.32.51.21.98.52,1.37.91.39.39.7.86.91,1.37.21.51.32,1.06.32,1.62,0,.56-.12,1.1-.33,1.62Z" />
</svg>
