<svg width="16" height="44" viewBox="0 0 16 44" fill="none" xmlns="http://www.w3.org/2000/svg">
<path fill-rule="evenodd" clip-rule="evenodd" d="M8 1.5C4.54822 1.5 1.75 4.29822 1.75 7.75V13.75C1.75 17.2018 4.54822 20 8 20C11.4518 20 14.25 17.2018 14.25 13.75V7.75C14.25 4.29822 11.4518 1.5 8 1.5ZM0.25 7.75C0.25 3.46979 3.71979 0 8 0C12.2802 0 15.75 3.46979 15.75 7.75V13.75C15.75 18.0302 12.2802 21.5 8 21.5C3.71979 21.5 0.25 18.0302 0.25 13.75V7.75Z" fill="#1E3791"/>
<path fill-rule="evenodd" clip-rule="evenodd" d="M8 4C8.41421 4 8.75 4.33579 8.75 4.75V8.75C8.75 9.16421 8.41421 9.5 8 9.5C7.58579 9.5 7.25 9.16421 7.25 8.75V4.75C7.25 4.33579 7.58579 4 8 4Z" fill="#1E3791"/>
<path fill-rule="evenodd" clip-rule="evenodd" d="M7.99999 32.3667L1.94712 25.7636L3.05286 24.75L7.99999 30.1469L12.9471 24.75L14.0529 25.7636L7.99999 32.3667Z" fill="#1E3791"/>
<path fill-rule="evenodd" clip-rule="evenodd" d="M7.99999 43.9834L1.94712 37.3803L3.05286 36.3667L7.99999 41.7636L12.9471 36.3667L14.0529 37.3803L7.99999 43.9834Z" fill="#1E3791"/>
</svg>
