<svg
    width="24"
	height="24"
	fill="white"
    xmlns="http://www.w3.org/2000/svg"
    viewBox="0 0 20.27 16.5"
>
    <path d="M1.75,16.5c-.29,0-.58-.08-.84-.22-.26-.15-.48-.36-.64-.61-.16-.25-.25-.55-.26-.85-.01-.3.05-.6.19-.86l1.2-2.39V2.75c0-.73.29-1.43.81-1.94s1.21-.81,1.94-.81h12c.73,0,1.43.29,1.94.81s.81,1.21.81,1.94v8.82l1.2,2.39c.13.26.2.56.19.86-.01.3-.1.59-.26.85-.16.25-.38.46-.64.61-.26.14-.55.22-.85.22H1.75ZM2.6,12.5l-1.07,2.14s-.03.08-.03.12c0,.04.02.08.04.12.02.04.05.07.09.09s.08,0,.12.03h16.76c.05,0,.09-.01.13-.03.04-.02.07-.05.09-.09s.04-.08.04-.12c0-.04,0-.08-.03-.12l-1.07-2.14H2.6ZM2.89,11h14.5V2.75c0-.33-.13-.65-.37-.88s-.55-.37-.88-.37H4.14c-.33,0-.65.13-.88.37s-.37.55-.37.88v8.25Z" />
</svg>