<svg
    width="24"
	height="24"
	fill="white"
    xmlns="http://www.w3.org/2000/svg"
    viewBox="0 0 22 22"
>
    <path d="M11,16c-2.76,0-5-2.24-5-5s2.24-5,5-5,5,2.24,5,5-2.24,5-5,5ZM11,8c-1.65,0-3,1.35-3,3s1.35,3,3,3,3-1.35,3-3-1.35-3-3-3Z" />
    <path d="M11,4c-.55,0-1-.45-1-1V1c0-.55.45-1,1-1s1,.45,1,1v2c0,.55-.45,1-1,1Z" />
    <path d="M11,22c-.55,0-1-.45-1-1v-2c0-.55.45-1,1-1s1,.45,1,1v2c0,.55-.45,1-1,1Z" />
    <path d="M5.34,6.34c-.26,0-.51-.1-.71-.29l-1.41-1.41c-.39-.39-.39-1.02,0-1.41s1.02-.39,1.41,0l1.41,1.41c.39.39.39,1.02,0,1.41-.2.2-.45.29-.71.29Z" />
    <path d="M18.07,19.07c-.26,0-.51-.1-.71-.29l-1.41-1.41c-.39-.39-.39-1.02,0-1.41s1.02-.39,1.41,0l1.41,1.41c.39.39.39,1.02,0,1.41-.2.2-.45.29-.71.29Z" />
    <path d="M3,12H1c-.55,0-1-.45-1-1s.45-1,1-1h2c.55,0,1,.45,1,1s-.45,1-1,1Z" />
    <path d="M21,12h-2c-.55,0-1-.45-1-1s.45-1,1-1h2c.55,0,1,.45,1,1s-.45,1-1,1Z" />
    <path d="M3.93,19.07c-.26,0-.51-.1-.71-.29-.39-.39-.39-1.02,0-1.41l1.41-1.41c.39-.39,1.02-.39,1.41,0s.39,1.02,0,1.41l-1.41,1.41c-.2.2-.45.29-.71.29Z" />
    <path d="M16.66,6.34c-.26,0-.51-.1-.71-.29-.39-.39-.39-1.02,0-1.41l1.41-1.41c.39-.39,1.02-.39,1.41,0s.39,1.02,0,1.41l-1.41,1.41c-.2.2-.45.29-.71.29Z" />
</svg>