<svg
    width="24"
	height="24"
	fill="white"
    viewBox="0 0 18 24"
    xmlns="http://www.w3.org/2000/svg"
>
    <path d="M15.4564 23.8332C15.1791 23.5545 15.0202 22.5962 14.7017 22.2642L9.02174 18.9158L3.3684 22.2259C2.95746 22.5728 2.8524 23.6942 2.43016 23.9079C1.978 24.136 1.48528 23.8813 1.53847 23.3661L7.71646 9.11981C7.6227 8.81836 7.3288 8.60721 7.22307 8.26223C6.76027 6.75106 8.277 5.44714 9.76581 6.03771C10.9767 6.51783 11.2087 8.13359 10.329 9.01976L16.4897 23.3161C16.6254 23.9079 15.8321 24.2113 15.4564 23.8332ZM9.47656 12.4391C9.63216 12.2799 10.1322 11.8797 10.1196 11.6757L9.21923 9.5551C9.17933 9.50118 8.9067 9.53366 8.83755 9.559C8.72185 9.60188 7.97379 11.5178 7.87072 11.7907L9.02107 12.9354C9.09023 12.9354 9.40076 12.5164 9.47656 12.4391ZM6.19573 15.7297L8.44856 13.4792C8.48048 13.2992 7.70183 12.6521 7.55754 12.4819L6.19573 15.7297ZM11.8464 15.7297L10.4839 12.4819C10.3556 12.6521 9.52377 13.3311 9.54638 13.461L11.8464 15.7297ZM11.6476 16.5087L9.01243 13.9801L6.32939 16.4119L9.01044 18.0575L11.6476 16.5087ZM3.80194 21.1221L8.25506 18.4909L5.59795 16.8991L3.80194 21.1221ZM12.4449 16.8991L9.71926 18.5227L14.2402 21.1221L12.4449 16.8991Z" />
    <path d="M13.0646 0.767467C12.7913 0.475109 12.9968 -0.0231996 13.409 0.000838774C13.6723 0.0164312 14.6644 0.744728 14.9065 0.948729C17.7232 3.32138 18.6913 7.27406 17.4998 10.6959C17.3309 11.1819 16.9392 12.5183 16.2689 11.8322C16.1027 11.4925 16.7012 10.4185 16.8288 9.9748C17.7019 6.93752 16.7537 3.59944 14.2721 1.56853C13.9696 1.321 13.2607 0.977964 13.0646 0.767467Z" />
    <path d="M4.91638 0.0878965C5.06533 0.234725 5.06866 0.570612 4.93367 0.73953C4.806 0.898703 3.97682 1.34763 3.70353 1.56918C1.27782 3.53577 0.322959 6.80044 1.09429 9.7669C1.21332 10.2256 1.7466 11.2917 1.74727 11.6049C1.7486 12.0577 1.24523 12.1857 0.95399 11.7881C-0.189047 10.2282 -0.178408 7.00249 0.326284 5.2204C0.828316 3.44936 2.53323 0.837633 4.30996 0.082699C4.47885 0.0112337 4.77209 -0.0543844 4.91638 0.0878965Z" />
    <path d="M6.11129 2.36309C6.21701 2.47224 6.22433 2.79253 6.16049 2.93027C6.10996 3.03941 5.34461 3.49874 5.1664 3.64752C3.59315 4.96443 2.98871 7.15646 3.50138 9.10357C3.60578 9.49988 4.23282 10.5394 3.73345 10.7577C3.20748 10.9877 2.95547 10.2106 2.81982 9.83447C1.89754 7.28055 2.8657 3.70989 5.41908 2.40012C5.64516 2.28448 5.88388 2.12921 6.11129 2.36309Z" />
    <path d="M11.8624 2.36179C12.1915 2.04215 12.7926 2.52811 13.0759 2.73731C15.2316 4.33164 16.0302 7.30524 15.1738 9.78704C15.0448 10.1606 14.7828 10.9942 14.2422 10.7577C13.7428 10.5394 14.3699 9.49988 14.4743 9.10357C14.9943 7.12723 14.3626 4.89686 12.7428 3.58255C12.5632 3.43702 11.869 3.04526 11.8152 2.93027C11.7533 2.79708 11.7593 2.46184 11.8624 2.36179Z" />
    <path d="M10.7373 4.57397C11.0345 4.21534 11.5219 4.63634 11.7819 4.84684C12.7361 5.61931 13.2255 6.8836 13.1032 8.08811C13.0619 8.49547 12.7461 9.9696 12.0878 9.55055C11.6868 9.29523 12.0599 8.79692 12.1343 8.50521C12.4542 7.25002 12.1204 6.3593 11.1841 5.49652C10.9494 5.28018 10.3463 5.04629 10.7373 4.57397Z" />
    <path d="M6.55081 5.68233C5.94571 6.27094 5.65979 7.13697 5.73094 7.96467C5.76751 8.39606 6.28085 9.25365 5.92843 9.52327C5.22359 10.0625 4.89178 8.38437 4.86319 7.96792C4.80135 7.0772 5.1172 6.02536 5.6957 5.33345C5.94173 5.03914 7.12532 3.89505 7.31217 4.73184C7.43253 5.26913 6.88062 5.36139 6.55081 5.68233Z" />
</svg>