<svg
    width="78"
	height="24"
	fill="white"
	xmlns="http://www.w3.org/2000/svg"
    viewBox="0 0 150 46.06"
>
    <path d="M91.19,31.25v7.33h3.44l-.03,1h-4.46v-8.33h1.06ZM74.1,31.25v8.33h4.73l.03-1h-3.71v-2.88h3.05v-.91h-3.05v-2.54h3.56l-.03-1h-4.58ZM85.77,33.64c0-1.09-.42-1.45-1.36-1.45h-1.45v2.94h1.42c.93,0,1.39-.36,1.39-1.48ZM85.34,35.79l1.99,3.76h-1.24l-1.69-3.57h-1.45v3.57h-1.06v-8.3h2.47c1.66,0,2.44.73,2.44,2.36.03,1.3-.51,2-1.48,2.18ZM68.43,38.64c.9,0,1.42-.36,1.42-1.51,0-1.03-.45-1.45-1.45-1.45h-1.75v2.97h1.78ZM66.62,34.83h1.69c.87,0,1.24-.42,1.24-1.33,0-.97-.39-1.3-1.3-1.3h-1.66l.03,2.63ZM69.51,35.16c.87.21,1.39.85,1.39,2.03,0,1.51-.69,2.36-2.47,2.36h-2.8v-8.3h2.71c1.51,0,2.29.67,2.29,2.06-.03,1.03-.48,1.6-1.12,1.85ZM97.44,39.55h1.06v-8.3h-1.09l.03,8.3ZM106.88,31.25v5.42l.03.88h-.03l-.45-.79-3.29-5.51h-.97v8.33h.94v-6.51h.03l.45.79,3.47,5.72h.75v-8.33h-.93ZM122.47,22.71c-.24.06-.48.09-.78.09-1.27,0-1.72-.55-1.72-2.7s.45-2.7,1.93-2.7c.63,0,1.3.12,1.81.33l.18-1.54c-.57-.24-1.36-.36-2.08-.36-2.56,0-3.65,1.33-3.65,4.33s.97,4.3,3.59,4.3c.84,0,1.72-.18,2.29-.45v-4.24h-1.57v2.94ZM82.27,15.96h-1.75v8.33h1.78v-8.33h-.03ZM74.31,24.29h1.75v-6.69h2.02l-.03-1.64h-5.7l-.03,1.64h2.02l-.03,6.69ZM67.55,22.86c-.75,0-1.42-.21-2.05-.55l-.24,1.54c.63.36,1.45.58,2.32.58,1.78,0,2.83-.97,2.83-2.6,0-2.73-3.44-2.24-3.44-3.57,0-.45.27-.82,1.21-.82.57,0,1.15.12,1.78.33l.21-1.51c-.57-.27-1.33-.42-2.08-.42-1.9,0-2.77,1.09-2.77,2.48,0,2.73,3.44,2.24,3.44,3.6-.03.61-.39.94-1.21.94ZM113.87,20.11l.03.88h-.03l-3.08-5.06h-1.48v8.36h1.54v-5.3h.03l.45.79,2.84,4.51h1.24v-8.33h-1.54v4.15ZM89.87,19.44h-2.71v-1.85h3.23l-.03-1.64h-4.95v8.33h1.75v-3.3h2.68l.03-1.54ZM106.33,21.44v-5.48h-1.72v5.48c0,.97-.36,1.36-1.3,1.36s-1.33-.42-1.33-1.36v-5.48h-1.75v5.48c0,2,1.06,2.97,3.05,2.97s3.05-.97,3.05-2.97ZM97.98,15.96h-5.7l-.03,1.64h2.02v6.69h1.75v-6.69h2.02l-.06-1.64ZM103.35,8.54V.21h-1.54v4.15l.03.88h-.03l-3.05-5.03h-1.48v8.33h1.54V3.24h.03l.45.79,2.83,4.51s1.21,0,1.21,0ZM66.53,8.54h1.75V1.85h2.02l-.03-1.64h-5.7l-.03,1.64h2.02l-.03,6.69ZM146.59,6.97v-1.97h2.75v-1.45h-2.75v-1.76h3.26l-.03-1.61h-4.95v8.36h5.1l.03-1.57h-3.41ZM120.3,6.9h-3.05V.21h-1.75v8.33h4.76l.03-1.64ZM89.87,5.09h2.56v3.45h1.75V.21h-1.75v3.24h-2.56V.21h-1.75v8.33h1.75v-3.45ZM77.93,6.97h-3.44v-1.97h2.74v-1.45h-2.74v-1.76h3.26l-.03-1.61h-4.95v8.36h5.1l.06-1.57ZM110.89,4.36c0-2.21-.36-2.66-1.51-2.66s-1.51.48-1.51,2.66.39,2.7,1.51,2.7,1.51-.48,1.51-2.7ZM109.41,8.66c-2.32,0-3.32-1.24-3.32-4.3S107.06.06,109.41.06s3.32,1.21,3.32,4.3-.96,4.3-3.32,4.3ZM139.96,8.54h1.78V.21h-1.78v8.33ZM83.69,8.66c.66,0,1.36-.15,1.87-.42l-.18-1.48c-.42.18-.87.3-1.42.3-1.36,0-1.84-.61-1.84-2.79,0-2.03.45-2.63,1.81-2.63.54,0,1.06.12,1.45.24l.18-1.54c-.42-.18-1.15-.33-1.75-.33-2.41,0-3.5,1.39-3.5,4.24-.03,3.09,1.06,4.42,3.38,4.42ZM126.96,4.36c0-2.21-.36-2.66-1.51-2.66s-1.51.48-1.51,2.66.39,2.7,1.51,2.7,1.51-.48,1.51-2.7ZM128.77,4.36c0,3.15-.97,4.3-3.32,4.3s-3.32-1.24-3.32-4.3S123.1.06,125.45.06s3.32,1.24,3.32,4.3ZM135.46,6.97c-.24.06-.51.09-.78.09-1.27,0-1.72-.55-1.72-2.7s.45-2.7,1.93-2.7c.63,0,1.3.12,1.81.33l.18-1.54c-.57-.24-1.39-.39-2.08-.39-2.56,0-3.65,1.33-3.65,4.33s1,4.3,3.59,4.3c.84,0,1.75-.18,2.29-.45v-4.21h-1.57v2.94Z" />
    <path d="M2.44,31.71l.69-.42,11.76,1.85-.45.45-12-1.88ZM33.44,17.87l-.39.39,13.24,5.84-.12-.64-12.73-5.6ZM28.38,15.63l-.54.33,2.53,1.12.39-.39-2.38-1.06ZM56.3,27.8l-5.49,12.14-33.26-5.66.87-.94,31.3,5.36-5.88-32.8L5.01,46.06,0,31.04,11.07,7.81l14.45,6.39-1.09.67-12.85-5.69L1.69,29.95,44.45,3.45l6.15,34.31,4.28-9.42-5.55-2.45-.21-1.27,7.18,3.18ZM5.46,44.06L42.19,6.12,1.27,31.46l4.19,12.6Z" />
</svg>