<svg
    width="24"
	height="24"
	fill="white"
	xmlns="http://www.w3.org/2000/svg"
    viewBox="0 0 15.75 15"
>
    <path d="M12.75,15H2.25c-.6,0-1.17-.23-1.59-.66s-.66-1-.66-1.59V2.25c0-.6.23-1.17.66-1.59.42-.43.99-.66,1.59-.66h9.38c.41,0,.75.34.75.75s-.34.75-.75.75H2.25c-.2,0-.39.08-.53.22s-.22.33-.22.53v10.5c0,.2.08.39.22.53s.33.22.53.22h10.5c.2,0,.39-.08.53-.22s.22-.33.22-.53v-6.38c0-.41.34-.75.75-.75s.75.34.75.75v6.38c0,.59-.24,1.17-.66,1.59s-1,.66-1.59.66Z" />
    <path
        opacity="0"
        d="M7.5,9.75c-.19,0-.38-.07-.53-.22l-2.25-2.25c-.29-.29-.29-.77,0-1.06s.77-.29,1.06,0l1.72,1.72L14.47.97c.29-.29.77-.29,1.06,0s.29.77,0,1.06l-7.5,7.5c-.15.15-.34.22-.53.22Z"
    />
</svg>