<svg
    width="24"
	height="24"
	fill="white"
    viewBox="0 0 24 25"
    xmlns="http://www.w3.org/2000/svg"
>
    <path d="M5 4.25061C4.66848 4.25061 4.35054 4.38231 4.11612 4.61673C3.8817 4.85115 3.75 5.16909 3.75 5.50061V19.6899L6.46967 16.9703C6.61032 16.8296 6.80109 16.7506 7 16.7506H19C19.3315 16.7506 19.6495 16.6189 19.8839 16.3845C20.1183 16.1501 20.25 15.8321 20.25 15.5006V5.50061C20.25 5.16909 20.1183 4.85115 19.8839 4.61673C19.6495 4.38231 19.3315 4.25061 19 4.25061H5ZM3.05546 3.55607C3.57118 3.04034 4.27065 2.75061 5 2.75061H19C19.7293 2.75061 20.4288 3.04034 20.9445 3.55607C21.4603 4.07179 21.75 4.77126 21.75 5.50061V15.5006C21.75 16.23 21.4603 16.9294 20.9445 17.4452C20.4288 17.9609 19.7293 18.2506 19 18.2506H7.31066L3.53033 22.0309C3.31583 22.2454 2.99324 22.3096 2.71299 22.1935C2.43273 22.0774 2.25 21.804 2.25 21.5006V5.50061C2.25 4.77127 2.53973 4.07179 3.05546 3.55607Z" />
    <path d="M6.25 8.50061C6.25 8.0864 6.58579 7.75061 7 7.75061H13C13.4142 7.75061 13.75 8.0864 13.75 8.50061C13.75 8.91482 13.4142 9.25061 13 9.25061H7C6.58579 9.25061 6.25 8.91482 6.25 8.50061Z" />
    <path d="M6.25 12.5006C6.25 12.0864 6.58579 11.7506 7 11.7506H17C17.4142 11.7506 17.75 12.0864 17.75 12.5006C17.75 12.9148 17.4142 13.2506 17 13.2506H7C6.58579 13.2506 6.25 12.9148 6.25 12.5006Z" />
</svg>